<svg width="25" height="38" viewBox="0 0 25 38" fill="none" xmlns="http://www.w3.org/2000/svg"><g clip-path="url(#clip0)"><path d="M6.25125 37.5C9.70056 37.5 12.5 34.7 12.5 31.25V25H6.25125C2.80194 25 .002502 27.8.002502 31.25S2.80194 37.5 6.25125 37.5z" fill="#0ACF83"/><path d="M.002502 18.75c0-3.45 2.799438-6.25 6.248748-6.25H12.5V25H6.25125C2.80194 25 .002502 22.2.002502 18.75z" fill="#A259FF"/><path d="M.009888 6.25C.009888 2.8 2.80933 0 6.25864 0h6.24876v12.5H6.25864C2.80933 12.5.009888 9.7.009888 6.25z" fill="#F24E1E"/><path d="M12.5 0h6.2487c3.4494 0 6.2488 2.8 6.2488 6.25s-2.7994 6.25-6.2488 6.25H12.5V0z" fill="#FF7262"/><path d="M24.9975 18.75c0 3.45-2.7994 6.25-6.2488 6.25-3.4493 0-6.2487-2.8-6.2487-6.25s2.7994-6.25 6.2487-6.25c3.4494 0 6.2488 2.8 6.2488 6.25z" fill="#1ABCFE"/></g><defs><clipPath id="clip0"><path fill="#fff" d="M0 0h25v37.5H0z"/></clipPath></defs></svg>